<svg width="35" height="26" viewBox="0 0 35 26" fill="none" xmlns="http://www.w3.org/2000/svg">
<path d="M31.8224 0H2.63403C1.98892 0 1.37024 0.273928 0.914084 0.761522C0.457926 1.24912 0.20166 1.91044 0.20166 2.6V23.4C0.20166 24.0896 0.457926 24.7509 0.914084 25.2385C1.37024 25.7261 1.98892 26 2.63403 26H31.8224C32.4675 26 33.0862 25.7261 33.5424 25.2385C33.9985 24.7509 34.2548 24.0896 34.2548 23.4V2.6C34.2548 1.91044 33.9985 1.24912 33.5424 0.761522C33.0862 0.273928 32.4675 0 31.8224 0ZM29.1468 2.6L17.2282 11.414L5.30963 2.6H29.1468ZM2.63403 23.4V3.783L16.535 14.066C16.7386 14.217 16.9804 14.2979 17.2282 14.2979C17.476 14.2979 17.7179 14.217 17.9214 14.066L31.8224 3.783V23.4H2.63403Z" fill="black"/>
</svg>
