<svg width="16" height="26" viewBox="0 0 16 26" fill="none" xmlns="http://www.w3.org/2000/svg">
<path d="M9.78133 25.7749H5.15873C4.85223 25.7749 4.55829 25.6437 4.34156 25.4101C4.12484 25.1765 4.00308 24.8597 4.00308 24.5294V16.8075H1.69178C1.38528 16.8075 1.09134 16.6763 0.874615 16.4427C0.657889 16.2091 0.536133 15.8923 0.536133 15.562V11.0783C0.536133 10.748 0.657889 10.4312 0.874615 10.1976C1.09134 9.96404 1.38528 9.83282 1.69178 9.83282H4.00308V7.71551C4.08409 5.81785 4.85898 4.03195 6.15833 2.74829C7.45769 1.46464 9.17579 0.787669 10.937 0.8654H14.4039C14.7104 0.8654 15.0044 0.996619 15.2211 1.23019C15.4378 1.46376 15.5596 1.78055 15.5596 2.11087V6.59459C15.5596 6.92491 15.4378 7.2417 15.2211 7.47527C15.0044 7.70884 14.7104 7.84006 14.4039 7.84006H10.937V9.83282H14.4039C14.5824 9.83136 14.7587 9.87446 14.9191 9.95873C15.0795 10.043 15.2196 10.1662 15.3284 10.3186C15.4361 10.4732 15.5088 10.6528 15.5409 10.843C15.573 11.0333 15.5636 11.229 15.5133 11.4146L14.3577 15.8983C14.2878 16.1677 14.1358 16.4039 13.9261 16.5688C13.7165 16.7337 13.4614 16.8178 13.202 16.8075H10.937V24.5294C10.937 24.8597 10.8152 25.1765 10.5985 25.4101C10.3818 25.6437 10.0878 25.7749 9.78133 25.7749ZM6.31438 23.284H8.62568V15.562C8.62568 15.2317 8.74743 14.9149 8.96416 14.6813C9.18088 14.4478 9.47483 14.3165 9.78133 14.3165H12.37L12.8785 12.3238H9.78133C9.47483 12.3238 9.18088 12.1926 8.96416 11.959C8.74743 11.7254 8.62568 11.4086 8.62568 11.0783V7.71551C8.65535 7.0767 8.9119 6.47466 9.34218 6.03412C9.77246 5.59358 10.3435 5.34831 10.937 5.34911H13.2483V3.35635H10.937C9.7892 3.28099 8.66014 3.6964 7.79474 4.51248C6.92935 5.32856 6.39743 6.47946 6.31438 7.71551V11.0783C6.31438 11.4086 6.19262 11.7254 5.9759 11.959C5.75917 12.1926 5.46523 12.3238 5.15873 12.3238H2.84743V14.3165H5.15873C5.46523 14.3165 5.75917 14.4478 5.9759 14.6813C6.19262 14.9149 6.31438 15.2317 6.31438 15.562V23.284Z" fill="black"/>
</svg>
