<svg width="31" height="26" viewBox="0 0 31 26" fill="none" xmlns="http://www.w3.org/2000/svg">
<path fill-rule="evenodd" clip-rule="evenodd" d="M9.30332 0.0773247C10.9054 0.014059 11.4162 0 15.4971 0C19.578 0 20.0888 0.0152306 21.6895 0.0773247C23.2901 0.139419 24.3827 0.358505 25.3388 0.676005C26.3399 1.00053 27.2481 1.50783 27.9993 2.16392C28.7641 2.80712 29.3541 3.58505 29.7311 4.445C30.1026 5.26511 30.3566 6.20238 30.4304 7.57314C30.5041 8.94975 30.5205 9.38792 30.5205 12.8875C30.5205 16.3882 30.5028 16.8263 30.4304 18.2006C30.358 19.5714 30.1026 20.5086 29.7311 21.3287C29.3541 22.1888 28.7631 22.968 27.9993 23.6122C27.2481 24.2682 26.3399 24.7744 25.3388 25.0977C24.3827 25.4164 23.2901 25.6343 21.6922 25.6976C20.0888 25.7608 19.578 25.7749 15.4971 25.7749C11.4162 25.7749 10.9054 25.7597 9.30332 25.6976C7.70537 25.6355 6.61276 25.4164 5.65672 25.0977C4.65414 24.7743 3.74577 24.2674 2.99484 23.6122C2.23053 22.9686 1.63906 22.1897 1.26168 21.3299C0.891558 20.5098 0.637525 19.5725 0.563773 18.2018C0.490022 16.8252 0.473633 16.387 0.473633 12.8875C0.473633 9.38675 0.491388 8.94858 0.563773 7.57548C0.636159 6.20238 0.891558 5.26511 1.26168 4.445C1.63962 3.58515 2.23154 2.80632 2.9962 2.16275C3.74607 1.50725 4.65352 0.999883 5.65535 0.676005C6.61139 0.358505 7.704 0.14059 9.30195 0.0773247H9.30332ZM21.5679 2.39707C19.9836 2.33497 19.5083 2.32208 15.4971 2.32208C11.4858 2.32208 11.0105 2.33497 9.42624 2.39707C7.96077 2.45447 7.16589 2.66419 6.63597 2.8411C5.93534 3.07541 5.4341 3.35308 4.90828 3.80414C4.40983 4.22012 4.02624 4.72651 3.78562 5.2862C3.57939 5.74077 3.33491 6.42264 3.26799 7.67975C3.19561 9.03879 3.18058 9.4465 3.18058 12.8875C3.18058 16.3284 3.19561 16.7361 3.26799 18.0952C3.33491 19.3523 3.57939 20.0341 3.78562 20.4887C4.02599 21.0476 4.40977 21.5548 4.90828 21.9708C5.39313 22.3984 5.9845 22.7276 6.63597 22.9338C7.16589 23.1107 7.96077 23.3204 9.42624 23.3778C11.0105 23.4399 11.4844 23.4528 15.4971 23.4528C19.5097 23.4528 19.9836 23.4399 21.5679 23.3778C23.0334 23.3204 23.8282 23.1107 24.3582 22.9338C25.0588 22.6995 25.56 22.4218 26.0859 21.9708C26.5844 21.5548 26.9681 21.0476 27.2085 20.4887C27.4148 20.0341 27.6592 19.3523 27.7261 18.0952C27.7985 16.7361 27.8136 16.3284 27.8136 12.8875C27.8136 9.4465 27.7985 9.03879 27.7261 7.67975C27.6592 6.42264 27.4148 5.74077 27.2085 5.2862C26.9354 4.68517 26.6117 4.2552 26.0859 3.80414C25.6009 3.3766 25.0106 3.04754 24.3582 2.8411C23.8282 2.66419 23.0334 2.45447 21.5679 2.39707ZM13.5782 16.8603C14.6498 17.243 15.8431 17.2946 16.9542 17.0064C18.0654 16.7182 19.0254 16.108 19.6703 15.2801C20.3153 14.4522 20.6051 13.4579 20.4904 12.467C20.3756 11.4761 19.8634 10.5501 19.0412 9.84718C18.5171 9.39785 17.8834 9.0538 17.1856 8.83979C16.4879 8.62578 15.7435 8.54715 15.0061 8.60954C14.2686 8.67193 13.5565 8.8738 12.921 9.20062C12.2854 9.52744 11.7422 9.97107 11.3305 10.4996C10.9188 11.0281 10.6489 11.6283 10.54 12.2571C10.4312 12.8858 10.4863 13.5275 10.7012 14.1358C10.9162 14.7441 11.2857 15.304 11.7832 15.7751C12.2806 16.2462 12.8937 16.6168 13.5782 16.8603ZM10.0367 8.20345C10.7538 7.58834 11.6051 7.1004 12.542 6.76751C13.4788 6.43461 14.483 6.26327 15.4971 6.26327C16.5111 6.26327 17.5153 6.43461 18.4522 6.76751C19.3891 7.1004 20.2403 7.58834 20.9574 8.20345C21.6745 8.81856 22.2433 9.54881 22.6313 10.3525C23.0194 11.1562 23.2192 12.0176 23.2192 12.8875C23.2192 13.7574 23.0194 14.6187 22.6313 15.4224C22.2433 16.2261 21.6745 16.9563 20.9574 17.5715C19.5092 18.8137 17.5451 19.5116 15.4971 19.5116C13.449 19.5116 11.4849 18.8137 10.0367 17.5715C8.58856 16.3292 7.77499 14.6443 7.77499 12.8875C7.77499 11.1306 8.58856 9.44572 10.0367 8.20345ZM24.9318 7.24978C25.1095 7.10599 25.2517 6.93308 25.3501 6.74128C25.4485 6.54948 25.5011 6.3427 25.5046 6.13317C25.5082 5.92365 25.4627 5.71564 25.3709 5.52146C25.279 5.32729 25.1427 5.15089 24.97 5.00272C24.7972 4.85455 24.5916 4.73761 24.3653 4.65883C24.1389 4.58006 23.8964 4.54104 23.6522 4.5441C23.4079 4.54715 23.1669 4.59221 22.9433 4.67662C22.7197 4.76102 22.5181 4.88305 22.3505 5.03548C22.0245 5.33192 21.846 5.72569 21.8529 6.13317C21.8599 6.54066 22.0516 6.92979 22.3876 7.21796C22.7235 7.50613 23.1771 7.67064 23.6522 7.67659C24.1272 7.68253 24.5862 7.52942 24.9318 7.24978Z" fill="black"/>
</svg>
