<svg width="27" height="26" viewBox="0 0 27 26" fill="none" xmlns="http://www.w3.org/2000/svg">
<path fill-rule="evenodd" clip-rule="evenodd" d="M3.21385 0.829065C3.49861 0.545146 3.84056 0.324899 4.21702 0.182919C4.59349 0.0409389 4.99587 -0.0195318 5.39751 0.00551423C5.79915 0.0305602 6.19087 0.140551 6.54672 0.328197C6.90256 0.515844 7.21441 0.776861 7.46159 1.09395L10.3829 4.84137C10.9184 5.52878 11.1072 6.4242 10.8956 7.26924L10.0054 10.8281C9.95933 11.0125 9.96181 11.2056 10.0126 11.3887C10.0633 11.5717 10.1606 11.7386 10.295 11.8731L14.2938 15.8659C14.4286 16.0004 14.596 16.0977 14.7797 16.1484C14.9633 16.1991 15.157 16.2014 15.3419 16.1551L18.9045 15.2662C19.3221 15.162 19.758 15.1539 20.1792 15.2425C20.6005 15.3312 20.996 15.5144 21.3359 15.7781L25.0889 18.6935C26.4381 19.7417 26.5618 21.7324 25.3542 22.9366L23.6714 24.6169C22.467 25.8195 20.667 26.3476 18.9891 25.7577C14.6944 24.2489 10.7951 21.7939 7.5804 18.5749C4.35681 15.3654 1.8982 11.4724 0.386898 7.18473C-0.202252 5.5109 0.326681 3.71195 1.53102 2.50939L3.21385 0.829065Z" fill="black"/>
</svg>
