<svg width="21" height="20" viewBox="0 0 21 20" fill="none" xmlns="http://www.w3.org/2000/svg">
<path d="M9.44482 2.96875H10.6167C10.7209 2.96875 10.7729 3.02083 10.7729 3.125V16.875C10.7729 16.9792 10.7209 17.0312 10.6167 17.0312H9.44482C9.34066 17.0312 9.28857 16.9792 9.28857 16.875V3.125C9.28857 3.02083 9.34066 2.96875 9.44482 2.96875Z" fill="black"/>
<path d="M3.46826 9.25781H16.5933C16.6974 9.25781 16.7495 9.3099 16.7495 9.41406V10.5859C16.7495 10.6901 16.6974 10.7422 16.5933 10.7422H3.46826C3.3641 10.7422 3.31201 10.6901 3.31201 10.5859V9.41406C3.31201 9.3099 3.3641 9.25781 3.46826 9.25781Z" fill="black"/>
</svg>
