<svg width="22" height="19" viewBox="0 0 22 19" fill="none" xmlns="http://www.w3.org/2000/svg">
<path d="M10.8 3C7.42 3 4.3 4.12 1.8 6L0 3.6C3.01 1.34 6.75 0 10.8 0C14.85 0 18.59 1.34 21.6 3.6L19.8 6C17.3 4.12 14.18 3 10.8 3ZM11.8 12.09C11.49 12.03 11.15 12 10.8 12C9.45 12 8.2 12.45 7.2 13.2L10.8 18L12.6 15.6C12.13 14.58 11.8 13.5 11.8 12.5C11.8 12.36 11.8 12.23 11.8 12.09ZM10.8 6C8.1 6 5.61 6.89 3.6 8.4L5.4 10.8C6.9 9.67 8.77 9 10.8 9C11.53 9 12.23 9.09 12.9 9.25C13.66 8.25 14.73 7.5 15.97 7.18C14.4 6.43 12.65 6 10.8 6ZM20.8 12.5C20.8 15.1 17.3 19 17.3 19C17.3 19 13.8 15.1 13.8 12.5C13.8 10.6 15.4 9 17.3 9C19.2 9 20.8 10.6 20.8 12.5ZM18.5 12.6C18.5 12 17.9 11.4 17.3 11.4C16.7 11.4 16.1 11.9 16.1 12.6C16.1 13.2 16.6 13.8 17.3 13.8C18 13.8 18.6 13.2 18.5 12.6Z" fill="black"/>
</svg>
