<svg width="38" height="28" viewBox="0 0 38 28" fill="none" xmlns="http://www.w3.org/2000/svg">
<path d="M35.8961 5.03462C35.7068 4.24339 35.3213 3.51842 34.7786 2.93296C34.2359 2.3475 33.5551 1.92227 32.805 1.70022C30.0645 1 19.1025 1 19.1025 1C19.1025 1 8.14055 1 5.40006 1.76691C4.65 1.98896 3.96922 2.41419 3.42649 2.99965C2.88376 3.58511 2.4983 4.31007 2.30903 5.10131C1.80748 8.0115 1.56214 10.9637 1.57611 13.9208C1.55823 16.9002 1.80358 19.8749 2.30903 22.807C2.51769 23.5736 2.91179 24.271 3.45326 24.8317C3.99472 25.3925 4.66525 25.7976 5.40006 26.008C8.14055 26.7749 19.1025 26.7749 19.1025 26.7749C19.1025 26.7749 30.0645 26.7749 32.805 26.008C33.5551 25.7859 34.2359 25.3607 34.7786 24.7753C35.3213 24.1898 35.7068 23.4648 35.8961 22.6736C36.3937 19.7853 36.6391 16.8556 36.629 13.9208C36.6469 10.9414 36.4015 7.96672 35.8961 5.03462V5.03462Z" stroke="black" stroke-width="2" stroke-linecap="round" stroke-linejoin="round"/>
<path d="M15.5177 19.3721L24.6792 13.9204L15.5177 8.46875V19.3721Z" stroke="black" stroke-width="2" stroke-linecap="round" stroke-linejoin="round"/>
</svg>
